# xmcd
#
# Track frame offsets:
#	150
#	17005
#	34200
#	48165
#	66287
#	84322
#	109272
#	126767
#	143520
#	158347
#	176292
#	201542
#	218112
#	232842
#	249385
#	266717
#	283175
#
# Disc length: 4033 seconds
#
# Revision: 2
# Processed by: cddbd v1.4PL0 Copyright (c) Steve Scherf et al.
# Submitted via: dBpowerAMP V4.0
#
DISCID=e70fbf11
DTITLE=Chico and The Gipsies - Vagabundo
DYEAR=1996
DGENRE=Folklore
TTITLE0=Vagabundo
TTITLE1=Jericho
TTITLE2=Patio
TTITLE3=Tu Dueño
TTITLE4=Dime Lo
TTITLE5=Arles
TTITLE6=Dile
TTITLE7=Oh Mama
TTITLE8=Sonia
TTITLE9=Llamas La
TTITLE10=El Verano
TTITLE11=Marina
TTITLE12=Canta Me
TTITLE13=Maria
TTITLE14=Bombani
TTITLE15=El Ritmo Gitano
TTITLE16=Cristo
EXTD=
EXTT0=
EXTT1=
EXTT2=
EXTT3=
EXTT4=
EXTT5=
EXTT6=
EXTT7=
EXTT8=
EXTT9=
EXTT10=
EXTT11=
EXTT12=
EXTT13=
EXTT14=
EXTT15=
EXTT16=
PLAYORDER=
